# xmcd
#
# Track frame offsets: 
#        150
#        18751
#        34127
#        57753
#        81454
#        98029
#        119855
#        141755
#        169880
#        194406
#        223581
#        247656
#        269106
#
# Disc length: 3836 seconds
#
# Revision: 0
# Processed by: cddbd v1.5.2PL0 Copyright (c) Steve Scherf et al.
# Submitted via: ExactAudioCopyFreeDBPlugin 1.0
#
DISCID=bd0efa0d
DTITLE=Khanh Ly - Chang nhac si va con chim nho
DYEAR=1900
DGENRE=Bass
TTITLE0=Toi la ai 
TTITLE1=Bong trang xua
TTITLE2=Saigon
TTITLE3=May troi
TTITLE4=Hay yeu nguoi yeu em
TTITLE5=Con chim la
TTITLE6=Tu thuat
TTITLE7=Chua phai
TTITLE8=Chang nhac si va con chim nho
TTITLE9=Dang sau nhung nu cuoi
TTITLE10=Chim hot tren dau ngon lan
TTITLE11=Gia vo
TTITLE12=Cung dau gi la
EXTD=
EXTT0=
EXTT1=
EXTT2=
EXTT3=
EXTT4=
EXTT5=
EXTT6=
EXTT7=
EXTT8=
EXTT9=
EXTT10=
EXTT11=
EXTT12=
PLAYORDER=
